HIERARCHY
ROOT Hips
{
	OFFSET 0.00000 0.00000 0.00000
	CHANNELS 6 Xposition Yposition Zposition Zrotation Yrotation Xrotation 
	JOINT RightUpLegDummy
	{
		OFFSET 0 0 0
		CHANNELS 3 Zrotation Yrotation Xrotation
		JOINT RightUpLeg
		{
			OFFSET -3.52197 -3.41223 0.04002
			CHANNELS 3 Zrotation Yrotation Xrotation
			JOINT RightLeg
			{
				OFFSET 0.00006 -17.42390 1.60435
				CHANNELS 3 Zrotation Yrotation Xrotation
				JOINT RightFoot
				{
					OFFSET 0.06153 -16.50078 -1.63901
					CHANNELS 3 Zrotation Yrotation Xrotation
					JOINT RightToes
					{
						OFFSET 0.00298 -1.73825 3.34613
						CHANNELS 3 Zrotation Yrotation Xrotation
						End Site
						{
							OFFSET 0.00480 -0.05416 3.85043
						}
					}
				}
			}
		}
	}
	JOINT SpineDummy
	{
		OFFSET 0 0 0
		CHANNELS 3 Zrotation Yrotation Xrotation
		JOINT Spine
		{
			OFFSET 0.00000 4.68130 0.00000
			CHANNELS 3 Zrotation Yrotation Xrotation
			JOINT Spine1
			{
				OFFSET -0.00000 10.10138 0.05002
				CHANNELS 3 Zrotation Yrotation Xrotation
				JOINT HEadDummy
				{
					OFFSET 0 0 0
					CHANNELS 3 Zrotation Yrotation Xrotation
					JOINT Head
					{
						OFFSET -0.00000 3.43865 0.00438
						CHANNELS 3 Zrotation Yrotation Xrotation
						End Site
						{
							OFFSET -0.11417 5.02924 0.98962
						}
					}
				}
				JOINT LeftShoulder1Dummy
				{
					OFFSET 0 0 0
					CHANNELS 3 Zrotation Yrotation Xrotation
					JOINT LeftShoulder1
					{
						OFFSET 3.53937 -0.14262 -0.08662
						CHANNELS 3 Zrotation Yrotation Xrotation
						JOINT LeftArm
						{
							OFFSET 4.04833 -0.00133 0.12681
							CHANNELS 3 Zrotation Yrotation Xrotation
							JOINT LeftForeArm
							{
								OFFSET 10.33880 -0.01036 -0.55515
								CHANNELS 3 Zrotation Yrotation Xrotation
								JOINT LeftHand
								{
									OFFSET 8.69677 0.07543 0.40060
									CHANNELS 3 Zrotation Yrotation Xrotation
									End Site
									{
										OFFSET 5.28377 -0.21905 0.59205
									}
								}
							}
						}
					}
				}
				JOINT RightShoulderDummy
				{
					OFFSET 0 0 0
					CHANNELS 3 Zrotation Yrotation Xrotation
					JOINT RightShoulder
					{
						OFFSET -3.53937 -0.14262 -0.08660
						CHANNELS 3 Zrotation Yrotation Xrotation
						JOINT RightArm
						{
							OFFSET -4.04833 -0.00133 0.12683
							CHANNELS 3 Zrotation Yrotation Xrotation
							JOINT RightForeArm
							{
								OFFSET -10.37987 -0.01039 -0.55511
								CHANNELS 3 Zrotation Yrotation Xrotation
								JOINT RightHand
								{
									OFFSET -8.67398 0.07538 0.40058
									CHANNELS 3 Zrotation Yrotation Xrotation
									End Site
									{
										OFFSET -5.24810 -0.21916 0.59204
									}
								}
							}
						}
					}
				}
			}
		}
	}
	JOINT LeftUpLegDummy
	{
		OFFSET 0 0 0
		CHANNELS 3 Zrotation Yrotation Xrotation
		JOINT LeftUpLeg
		{
			OFFSET 3.52197 -3.41223 0.04002
			CHANNELS 3 Zrotation Yrotation Xrotation
			JOINT LeftLeg
			{
				OFFSET -0.00012 -17.42399 1.60337
				CHANNELS 3 Zrotation Yrotation Xrotation
				JOINT LeftFoot
				{
					OFFSET -0.09972 -16.50070 -1.63802
					CHANNELS 3 Zrotation Yrotation Xrotation
					JOINT LeftToes
					{
						OFFSET -0.01575 -1.73823 3.34611
						CHANNELS 3 Zrotation Yrotation Xrotation
						End Site
						{
							OFFSET 0.03150 -0.01868 3.85031
						}
					}
				}
			}
		}
	}
}
MOTION
Frames: 9
Frame Time: 0.033333
-3.3651 39.2976 4.9367 2.6984 -5.4460 -3.2287 0.0000 0.0000 0.0000 0.9211 -2.3119 1.4094 -2.9456 -5.3333 16.8657 -3.0019 -0.1545 -15.1047 0.0000 -0.0000 -0.0000 0.0000 0.0000 0.0000 -1.0682 0.5184 6.8542 2.2591 0.0864 0.3385 -0.0000 0.0000 -0.0000 1.1180 5.8160 -11.3284 -0.0000 0.0000 -0.0000 -33.7203 -2.6547 2.4478 -44.8657 -15.6835 -15.5716 -11.3771 5.1173 48.0712 18.5196 -4.0521 -1.4818 -0.0000 0.0000 -0.0000 34.8045 5.2143 3.5591 36.9496 8.9463 -17.3155 10.5164 -3.9786 27.2158 -12.0221 2.2161 -0.7700 0.0000 0.0000 0.0000 -2.0838 9.4158 -14.1723 7.0947 12.2459 23.5449 -1.4301 0.0783 -8.6196 0.0000 0.0000 -0.0000
-3.3558 39.3571 5.2821 2.9337 -5.3780 -3.1506 0.0000 0.0000 0.0000 0.5784 -2.4924 2.3677 -2.8700 -5.3165 15.8524 -3.0959 -0.1535 -14.9725 0.0000 -0.0000 -0.0000 0.0000 0.0000 0.0000 -1.2685 0.5082 6.9272 2.2794 0.0654 0.4380 -0.0000 0.0000 -0.0000 1.1952 5.5926 -11.6842 -0.0000 0.0000 -0.0000 -33.8287 -2.6533 2.4540 -44.8266 -15.9185 -16.2411 -10.9765 5.1135 48.3759 18.5267 -3.9190 -1.4619 -0.0000 0.0000 -0.0000 34.8807 5.2222 3.5691 36.8078 8.8606 -16.5056 10.8432 -2.8839 26.4879 -12.2047 2.3414 -0.7943 0.0000 0.0000 0.0000 -2.7554 9.6024 -14.7438 5.5928 11.4518 19.0883 0.8193 -0.0256 -4.1360 0.0000 0.0000 -0.0000
-3.3344 39.4071 5.6588 2.9626 -5.2418 -2.9541 0.0000 0.0000 0.0000 0.3814 -2.7223 3.3210 -2.6789 -5.3282 14.7292 -3.2575 -0.1530 -14.7982 0.0000 -0.0000 -0.0000 0.0000 0.0000 0.0000 -1.3625 0.4480 6.8845 2.3876 -0.0196 0.4534 -0.0000 0.0000 -0.0000 1.3041 5.3658 -11.7512 -0.0000 0.0000 -0.0000 -33.9350 -2.6619 2.4641 -44.8262 -16.1249 -17.1029 -10.4499 5.1068 48.8300 18.7131 -3.6433 -1.4343 -0.0000 0.0000 -0.0000 34.7701 5.2015 3.5509 36.9087 8.7649 -15.8392 11.0883 -1.9969 25.9878 -12.3013 2.4917 -0.8156 0.0000 0.0000 0.0000 -2.9907 9.2168 -15.1281 3.8686 10.2993 14.5486 1.2595 -0.1156 -0.1936 0.0000 0.0000 -0.0000
-3.3010 39.4559 6.0611 2.8475 -5.2138 -2.7190 0.0000 0.0000 0.0000 0.3023 -2.8866 4.3217 -2.4505 -5.2935 13.4853 -3.3447 -0.1471 -14.5379 0.0000 -0.0000 -0.0000 0.0000 0.0000 0.0000 -1.3149 0.4149 6.8376 2.4065 -0.0533 0.3575 -0.0000 0.0000 -0.0000 1.5775 5.1754 -11.6056 -0.0000 0.0000 -0.0000 -33.9733 -2.6761 2.4716 -44.8240 -16.2037 -17.7378 -10.0799 5.1052 49.0350 19.0578 -3.3272 -1.4119 -0.0000 0.0000 -0.0000 34.6506 5.1848 3.5335 37.1170 8.6568 -15.4892 11.2010 -1.4358 25.6969 -12.2395 2.5970 -0.8217 0.0000 0.0000 0.0000 -2.0244 6.5309 -15.1536 1.9699 11.0277 10.3778 -0.5797 0.0535 1.2169 0.0000 0.0000 -0.0000
-3.2511 39.4937 6.4938 2.6886 -5.4038 -2.4669 0.0000 0.0000 0.0000 0.2783 -2.9024 5.2552 -2.3168 -5.2249 12.4015 -3.2902 -0.1371 -14.2751 0.0000 -0.0000 -0.0000 0.0000 0.0000 0.0000 -1.2132 0.4460 6.6998 2.3184 0.0021 0.3272 -0.0000 0.0000 -0.0000 1.9581 5.1071 -11.4983 -0.0000 0.0000 -0.0000 -34.0114 -2.6666 2.4680 -44.7234 -16.1765 -17.9170 -10.0152 5.1084 48.9497 19.2316 -3.1981 -1.4046 -0.0000 0.0000 -0.0000 34.6833 5.1944 3.5403 37.2347 8.6708 -15.4484 11.2010 -1.3122 25.6366 -12.2256 2.6088 -0.8219 0.0000 0.0000 0.0000 -0.6479 3.0650 -14.9874 0.3358 11.9064 6.6197 -3.0563 0.3136 0.5528 0.0000 0.0000 -0.0000
-3.1819 39.4991 6.9699 2.5036 -5.7777 -2.2421 0.0000 0.0000 0.0000 0.2614 -2.8212 6.0308 -2.2683 -5.0953 11.8299 -3.1366 -0.1309 -14.2061 0.0000 -0.0000 -0.0000 0.0000 0.0000 0.0000 -1.1449 0.5157 6.4528 2.2486 0.0916 0.4371 -0.0000 0.0000 -0.0000 2.3246 5.1229 -11.5222 -0.0000 0.0000 -0.0000 -34.0631 -2.6412 2.4628 -44.5826 -16.1039 -17.8344 -10.0936 5.1056 49.0148 19.2215 -3.2755 -1.4162 -0.0000 0.0000 -0.0000 34.7978 5.2137 3.5582 37.2563 8.8723 -15.5673 11.1567 -1.6022 25.7876 -12.3623 2.6145 -0.8320 0.0000 0.0000 0.0000 0.0410 1.2163 -14.8005 -0.3645 10.9479 3.9483 -4.6031 0.4450 -0.3763 0.0000 0.0000 -0.0000
-3.0938 39.4801 7.4999 2.2840 -6.2640 -2.1336 0.0000 0.0000 0.0000 0.1812 -2.7557 6.7983 -2.1783 -4.7631 11.6885 -2.8863 -0.1266 -14.2735 0.0000 -0.0000 -0.0000 0.0000 0.0000 0.0000 -1.1288 0.5857 6.2338 2.2547 0.1653 0.5544 -0.0000 0.0000 -0.0000 2.6392 5.0818 -11.5223 -0.0000 0.0000 -0.0000 -34.0776 -2.6386 2.4636 -44.5251 -15.9619 -17.8102 -10.1061 5.0943 49.3921 19.2287 -3.3442 -1.4277 -0.0000 0.0000 -0.0000 34.8783 5.2266 3.5707 37.2779 9.0945 -15.6910 11.1289 -2.0555 26.0163 -12.4666 2.7381 -0.8516 0.0000 0.0000 0.0000 0.1796 0.6935 -14.5115 -0.2678 9.8624 3.0045 -5.0352 0.4765 -0.6170 0.0000 0.0000 -0.0000
-2.9846 39.4618 8.0912 2.0499 -6.8654 -2.1472 0.0000 0.0000 0.0000 -0.0096 -2.6683 7.6698 -2.0230 -4.2077 11.7531 -2.4138 -0.1128 -14.1989 0.0000 -0.0000 -0.0000 0.0000 0.0000 0.0000 -1.1094 0.6638 5.9888 2.2671 0.2462 0.6917 -0.0000 0.0000 -0.0000 2.8817 4.9416 -11.3665 -0.0000 0.0000 -0.0000 -34.0972 -2.6657 2.4757 -44.5214 -15.7666 -17.9063 -10.0583 5.0858 49.6990 19.1676 -3.2791 -1.4127 -0.0000 0.0000 -0.0000 34.9495 5.2407 3.5828 37.3130 9.1305 -15.7891 11.1111 -2.3560 26.1770 -12.3654 2.8768 -0.8582 0.0000 0.0000 0.0000 0.1585 0.5766 -13.9888 0.1371 10.2034 3.3009 -4.9054 0.4851 -0.0468 0.0000 0.0000 -0.0000
-2.8484 39.4439 8.7451 1.7955 -7.5709 -2.1599 0.0000 0.0000 0.0000 -0.2401 -2.3123 8.4234 -1.9120 -3.7249 12.2107 -1.6019 -0.0874 -13.9127 0.0000 -0.0000 -0.0000 0.0000 0.0000 0.0000 -0.9926 0.7654 5.4216 2.2214 0.3610 1.0783 -0.0000 0.0000 -0.0000 2.9819 4.7753 -11.0913 -0.0000 0.0000 -0.0000 -34.2093 -2.6987 2.4960 -44.4773 -15.6540 -18.0149 -10.0276 5.0851 49.7344 18.8290 -3.1969 -1.3739 -0.0000 0.0000 -0.0000 35.0712 5.2601 3.6016 37.3321 8.9425 -15.9241 11.0565 -2.3452 26.1952 -12.1312 2.7689 -0.8309 0.0000 0.0000 0.0000 0.1201 0.5758 -13.3872 0.6436 11.3614 4.0718 -4.6652 0.5071 1.2516 0.0000 0.0000 -0.0000
